<?xml version="1.0" encoding="UTF-8"?>
<!DOCTYPE svg PUBLIC "-//W3C//DTD SVG 1.1//EN" "http://www.w3.org/Graphics/SVG/1.1/DTD/svg11.dtd">
<!-- Creator: CorelDRAW -->
<svg xmlns="http://www.w3.org/2000/svg" xml:space="preserve" width="2048px" height="2048px" style="shape-rendering:geometricPrecision; text-rendering:geometricPrecision; image-rendering:optimizeQuality; fill-rule:evenodd; clip-rule:evenodd"
viewBox="0 0 2048 2048"
 xmlns:xlink="http://www.w3.org/1999/xlink">
 <defs>
  <style type="text/css">
   <![CDATA[
    .fil8 {fill:none}
    .fil0 {fill:#2D2D2D;fill-rule:nonzero}
    .fil7 {fill:#323232;fill-rule:nonzero}
    .fil3 {fill:#3A3A3A;fill-rule:nonzero}
    .fil4 {fill:#3E3E3E;fill-rule:nonzero}
    .fil1 {fill:#D5D5D6;fill-rule:nonzero}
    .fil5 {fill:#E5E5E6;fill-rule:nonzero}
    .fil2 {fill:#E8E9E9;fill-rule:nonzero}
    .fil6 {fill:#FFFFFE;fill-rule:nonzero}
   ]]>
  </style>
 </defs>
 <g id="Layer_x0020_1">
  <metadata id="CorelCorpID_0Corel-Layer"/>
  <g id="_497127784">
   <path id="_497129680" class="fil0" d="M1395.24 840.445c-23.537,-37.5614 -14.7343,-24.4134 -8.83583,-48.8233 5.88544,-24.4181 -23.5524,-46.95 -30.9012,-58.2201 11.4236,-45.2055 -40.6288,-313.984 -65.5371,-277.27 -69.7536,-204.702 -262.871,-200.123 -262.871,-200.123 0,0 -224.951,-1.50236 -294.688,203.199 0,0 -25.2236,63.8528 -26.8961,105.173 -0.779528,19.4528 1.2874,156.578 -6.82441,169.021 -7.34882,11.2701 -36.7866,33.802 -30.9012,58.2201 5.88426,24.4099 14.7012,11.2618 -8.83583,48.8233 -23.5347,37.5591 -20.602,41.3162 -14.7177,69.489 13.0571,62.5123 -2.03032,101.849 26.504,52.5815 -85.9843,290.181 108.154,332.822 152.334,182.093 -5.18622,15.098 1.22717,18.8587 10.5213,30.1276 9.31182,11.2701 10.7776,5.63622 18.1465,-9.38741 7.35119,-15.0272 -13.2532,-39.4406 -2.9504,-52.5886 10.3016,-13.1421 36.3437,-17.5677 38.2548,15.5362 1.9252,33.1087 14.7177,40.8048 41.2028,40.8048 26.504,0 47.0882,0 55.9217,-9.3945 0.359055,-0.375591 0.750001,-2.32559 1.17874,-5.44961 26.8784,8.05158 117.182,14.8441 140.597,14.8441 26.4709,0 39.28,-7.69607 41.1886,-40.8048 1.92756,-33.104 27.9697,-28.6784 38.2713,-15.5362 10.3028,13.148 -10.3016,37.5614 -2.9504,52.5886 7.34882,15.0236 8.83465,20.6575 18.1288,9.38741 9.31182,-11.2689 15.7075,-15.0295 10.5402,-30.1276 13.2248,366.177 141.386,65.7567 152.333,-182.093 28.5319,49.2674 13.4055,9.95552 26.504,-52.5815 5.88426,-28.1729 8.81694,-31.9299 -14.7177,-69.489z"/>
   <path id="_497129464" class="fil1" d="M1130.08 930.579l-225.816 0c0,227.608 -138.243,243.043 -138.243,243.043 0,215.556 251.16,249.166 251.16,249.166 0,0 251.143,-33.6095 251.143,-249.166 0,0 -138.243,-15.4347 -138.243,-243.043z"/>
   <path id="_497128720" class="fil2" d="M1017.18 1013.66c-95.5713,0 -168.52,-80.4804 -201.208,-140.835 -32.6894,-60.3508 -55.3122,-407.4 15.1087,-502.966 68.9528,-93.5835 186.099,-82.9843 186.099,-82.9843 0,0 117.136,-10.5992 186.099,82.9843 70.4103,95.5654 47.7804,442.615 15.0921,502.966 -32.6988,60.3544 -105.638,140.835 -201.191,140.835z"/>
   <path id="_497128552" class="fil3" d="M767.351 741.751c318.624,-45.6107 392.657,-270.533 392.657,-270.533 0,0 9.25867,122.981 114.399,205.506 0,0 75.2847,-214.277 -44.1473,-331.953 -119.425,-117.682 -314.361,-114.168 -432.03,12.2941 -117.678,126.45 -30.8788,384.685 -30.8788,384.685z"/>
   <g>
    <path id="_497128480" class="fil4" d="M1192.95 1169.33c-51.1737,30.561 -168.945,131.033 -168.945,194.967 0,-63.9343 -117.769,-164.406 -168.941,-194.967 -42.104,-25.1457 -407.301,-4.23426 -407.301,194.967l0 125.421 0 302.28 211.102 0 365.14 0 365.142 0 211.101 0 0 -302.28 0 -125.421c0,-199.205 -365.202,-220.11 -407.298,-194.967z"/>
    <polygon id="_497128288" class="fil0" points="1246.64,1169.45 1346.84,1362.17 1225.81,1490.69 1268.61,1546.76 1167.75,1792 1167.75,1252.27 "/>
    <polygon id="_497128240" class="fil5" points="875.372,1217.35 1167.75,1217.35 1167.75,1792 875.372,1792 "/>
    <path id="_497128168" class="fil6" d="M1199.25 1108.18c0,0 -26.6232,58.4386 -105.516,109.169 0,0 90.1572,125.379 88.7587,171.865 0,0 67.6099,-163.43 69.0154,-219.766 0,0 -39.5752,-55.6323 -52.2579,-61.2686z"/>
    <polygon id="_497128576" class="fil7" points="954.264,1217.35 1093.74,1217.35 1051.52,1335.68 998.479,1335.68 "/>
    <polygon id="_497128744" class="fil7" points="998.481,1335.68 954.264,1792 1093.74,1792 1051.52,1335.68 "/>
    <polygon id="_497128768" class="fil0" points="796.481,1169.45 696.284,1362.17 817.313,1490.69 774.51,1546.76 875.374,1792 875.374,1252.27 "/>
    <path id="_497128384" class="fil6" d="M846.108 1113.33c0,0 29.2642,53.2843 108.156,104.015 0,0 -90.1595,125.379 -88.7599,171.865 0,0 -67.6099,-163.43 -69.0166,-219.766 0,0 36.939,-50.478 49.6205,-56.1142z"/>
   </g>
  </g>
 </g>
 <rect class="fil8" width="2048" height="2048"/>
</svg>
